<svg width="48" height="48" viewBox="0 0 64 64" fill="none"><path d="M 32 6 L 32 58" stroke="#a06a3a" stroke-width="1"/><path d="M 32 14 Q 38 12 46 10" stroke="#a06a3a" stroke-width="0.8" fill="none"/><ellipse cx="46" cy="10" rx="6" ry="2.5" transform="rotate(-25 46 10)" stroke="#a06a3a" stroke-width="0.8" fill="none"/><path d="M 32 22 Q 26 20 18 18" stroke="#a06a3a" stroke-width="0.8" fill="none"/><ellipse cx="18" cy="18" rx="6" ry="2.5" transform="rotate(25 18 18)" stroke="#a06a3a" stroke-width="0.8" fill="none"/><path d="M 32 30 Q 38 28 46 26" stroke="#a06a3a" stroke-width="0.8" fill="none"/><ellipse cx="46" cy="26" rx="6" ry="2.5" transform="rotate(-25 46 26)" stroke="#a06a3a" stroke-width="0.8" fill="none"/><path d="M 32 38 Q 26 36 18 34" stroke="#a06a3a" stroke-width="0.8" fill="none"/><ellipse cx="18" cy="34" rx="6" ry="2.5" transform="rotate(25 18 34)" stroke="#a06a3a" stroke-width="0.8" fill="none"/><path d="M 32 46 Q 38 44 46 42" stroke="#a06a3a" stroke-width="0.8" fill="none"/><ellipse cx="46" cy="42" rx="6" ry="2.5" transform="rotate(-25 46 42)" stroke="#a06a3a" stroke-width="0.8" fill="none"/><ellipse cx="32" cy="8" rx="3" ry="5" stroke="#a06a3a" stroke-width="0.8" fill="none"/></svg>
